<?xml version="1.0" encoding="utf-8" standalone="no"?>
<!DOCTYPE svg PUBLIC "-//W3C//DTD SVG 1.1//EN"
  "http://www.w3.org/Graphics/SVG/1.1/DTD/svg11.dtd">
<!-- Created with matplotlib (http://matplotlib.org/) -->
<svg height="288pt" version="1.1" viewBox="0 0 432 288" width="432pt" xmlns="http://www.w3.org/2000/svg" xmlns:xlink="http://www.w3.org/1999/xlink">
 <defs>
  <style type="text/css">
*{stroke-linecap:butt;stroke-linejoin:round;}
  </style>
 </defs>
 <g id="figure_1">
  <g id="patch_1">
   <path d="M 0 288 
L 432 288 
L 432 0 
L 0 0 
z
" style="fill:#ffffff;"/>
  </g>
  <g id="axes_1">
   <g id="patch_2">
    <path d="M 54 252 
L 388.8 252 
L 388.8 34.56 
L 54 34.56 
z
" style="fill:#ffffff;"/>
   </g>
   <g id="PolyCollection_1">
    <path clip-path="url(#p934df5371e)" d="M 89.509091 198.716257 
L 69.218182 198.716257 
L 69.218182 198.716257 
L 69.218182 198.716257 
L 69.218182 198.716257 
L 69.218182 198.716257 
L 69.218182 198.716257 
L 69.218182 198.716257 
L 69.218182 198.716257 
L 69.218182 198.716257 
L 69.218182 198.716257 
L 69.218182 198.716257 
L 69.218182 198.716257 
L 69.218182 198.716257 
L 69.218182 198.716257 
L 69.218182 198.716257 
L 69.218182 198.716257 
L 69.218182 198.716257 
L 69.218182 198.716257 
L 69.218182 198.716257 
L 69.218182 198.716257 
L 69.218182 198.716257 
L 69.218182 198.716257 
L 69.218182 198.716257 
L 69.218182 198.716257 
L 69.218182 198.716257 
L 69.218182 198.716257 
L 69.218182 198.716257 
L 69.218182 198.716257 
L 69.218182 198.716257 
L 69.218182 198.716257 
L 69.218182 198.716257 
L 69.218182 198.716257 
L 69.218182 198.716257 
L 69.218182 198.716257 
L 69.218182 198.716257 
L 69.218182 198.716257 
L 69.218182 198.716257 
L 69.218182 198.716257 
L 69.218182 198.716257 
L 69.218182 198.716257 
L 69.218182 198.716257 
L 69.218182 198.716257 
L 69.218182 198.716257 
L 69.218182 198.716257 
L 69.218182 198.716257 
L 69.218182 198.716257 
L 69.218182 198.716257 
L 69.218182 198.716257 
L 69.218182 198.716257 
L 69.218182 198.716257 
L 69.218182 198.716257 
L 69.218182 198.716257 
L 69.218182 198.716257 
L 69.218182 198.716257 
L 69.218182 198.716257 
L 69.218182 198.716257 
L 69.218182 198.716257 
L 69.218182 198.716257 
L 69.218182 198.716257 
L 69.218182 198.716257 
L 69.218182 198.716257 
L 69.218182 198.716257 
L 69.218182 198.716257 
L 69.218182 198.716257 
L 69.218182 198.716257 
L 69.218182 198.716257 
L 69.218182 198.716257 
L 69.218182 198.716257 
L 69.218182 198.716257 
L 69.218182 198.716257 
L 69.218182 198.716257 
L 69.218182 198.716257 
L 69.218182 198.716257 
L 69.218182 198.716257 
L 69.218182 198.716257 
L 69.218182 198.716257 
L 69.218182 198.716257 
L 69.218182 198.716257 
L 69.218182 198.716257 
L 69.218182 198.716257 
L 69.218182 198.716257 
L 69.218182 198.716257 
L 69.218182 198.716257 
L 69.218182 198.716257 
L 69.218182 198.716257 
L 69.218182 198.716257 
L 69.218182 198.716257 
L 69.218182 198.716257 
L 69.218182 198.716257 
L 69.218182 198.716257 
L 69.218182 198.716257 
L 69.218182 198.716257 
L 69.218182 198.716257 
L 69.218182 198.716257 
L 69.218182 198.716257 
L 69.218182 198.716257 
L 69.218182 198.716257 
L 69.218182 198.716257 
L 69.218182 198.716257 
L 69.218182 198.716257 
L 89.509091 198.716257 
L 89.509091 198.716257 
L 89.509091 198.716257 
L 89.509091 198.716257 
L 89.509091 198.716257 
L 89.509091 198.716257 
L 89.509091 198.716257 
L 89.509091 198.716257 
L 89.509091 198.716257 
L 89.509091 198.716257 
L 89.509091 198.716257 
L 89.509091 198.716257 
L 89.509091 198.716257 
L 89.509091 198.716257 
L 89.509091 198.716257 
L 89.509091 198.716257 
L 89.509091 198.716257 
L 89.509091 198.716257 
L 89.509091 198.716257 
L 89.509091 198.716257 
L 89.509091 198.716257 
L 89.509091 198.716257 
L 89.509091 198.716257 
L 89.509091 198.716257 
L 89.509091 198.716257 
L 89.509091 198.716257 
L 89.509091 198.716257 
L 89.509091 198.716257 
L 89.509091 198.716257 
L 89.509091 198.716257 
L 89.509091 198.716257 
L 89.509091 198.716257 
L 89.509091 198.716257 
L 89.509091 198.716257 
L 89.509091 198.716257 
L 89.509091 198.716257 
L 89.509091 198.716257 
L 89.509091 198.716257 
L 89.509091 198.716257 
L 89.509091 198.716257 
L 89.509091 198.716257 
L 89.509091 198.716257 
L 89.509091 198.716257 
L 89.509091 198.716257 
L 89.509091 198.716257 
L 89.509091 198.716257 
L 89.509091 198.716257 
L 89.509091 198.716257 
L 89.509091 198.716257 
L 89.509091 198.716257 
L 89.509091 198.716257 
L 89.509091 198.716257 
L 89.509091 198.716257 
L 89.509091 198.716257 
L 89.509091 198.716257 
L 89.509091 198.716257 
L 89.509091 198.716257 
L 89.509091 198.716257 
L 89.509091 198.716257 
L 89.509091 198.716257 
L 89.509091 198.716257 
L 89.509091 198.716257 
L 89.509091 198.716257 
L 89.509091 198.716257 
L 89.509091 198.716257 
L 89.509091 198.716257 
L 89.509091 198.716257 
L 89.509091 198.716257 
L 89.509091 198.716257 
L 89.509091 198.716257 
L 89.509091 198.716257 
L 89.509091 198.716257 
L 89.509091 198.716257 
L 89.509091 198.716257 
L 89.509091 198.716257 
L 89.509091 198.716257 
L 89.509091 198.716257 
L 89.509091 198.716257 
L 89.509091 198.716257 
L 89.509091 198.716257 
L 89.509091 198.716257 
L 89.509091 198.716257 
L 89.509091 198.716257 
L 89.509091 198.716257 
L 89.509091 198.716257 
L 89.509091 198.716257 
L 89.509091 198.716257 
L 89.509091 198.716257 
L 89.509091 198.716257 
L 89.509091 198.716257 
L 89.509091 198.716257 
L 89.509091 198.716257 
L 89.509091 198.716257 
L 89.509091 198.716257 
L 89.509091 198.716257 
L 89.509091 198.716257 
L 89.509091 198.716257 
L 89.509091 198.716257 
L 89.509091 198.716257 
L 89.509091 198.716257 
L 89.509091 198.716257 
z
" style="fill:#1f77b4;fill-opacity:0.3;"/>
   </g>
   <g id="PolyCollection_2">
    <path clip-path="url(#p934df5371e)" d="M 130.090909 211.558723 
L 109.8 211.558723 
L 109.8 211.558723 
L 109.8 211.558723 
L 109.8 211.558723 
L 109.8 211.558723 
L 109.8 211.558723 
L 109.8 211.558723 
L 109.8 211.558723 
L 109.8 211.558723 
L 109.8 211.558723 
L 109.8 211.558723 
L 109.8 211.558723 
L 109.8 211.558723 
L 109.8 211.558723 
L 109.8 211.558723 
L 109.8 211.558723 
L 109.8 211.558723 
L 109.8 211.558723 
L 109.8 211.558723 
L 109.8 211.558723 
L 109.8 211.558723 
L 109.8 211.558723 
L 109.8 211.558723 
L 109.8 211.558723 
L 109.8 211.558723 
L 109.8 211.558723 
L 109.8 211.558723 
L 109.8 211.558723 
L 109.8 211.558723 
L 109.8 211.558723 
L 109.8 211.558723 
L 109.8 211.558723 
L 109.8 211.558723 
L 109.8 211.558723 
L 109.8 211.558723 
L 109.8 211.558723 
L 109.8 211.558723 
L 109.8 211.558723 
L 109.8 211.558723 
L 109.8 211.558723 
L 109.8 211.558723 
L 109.8 211.558723 
L 109.8 211.558723 
L 109.8 211.558723 
L 109.8 211.558723 
L 109.8 211.558723 
L 109.8 211.558723 
L 109.8 211.558723 
L 109.8 211.558723 
L 109.8 211.558723 
L 109.8 211.558723 
L 109.8 211.558723 
L 109.8 211.558723 
L 109.8 211.558723 
L 109.8 211.558723 
L 109.8 211.558723 
L 109.8 211.558723 
L 109.8 211.558723 
L 109.8 211.558723 
L 109.8 211.558723 
L 109.8 211.558723 
L 109.8 211.558723 
L 109.8 211.558723 
L 109.8 211.558723 
L 109.8 211.558723 
L 109.8 211.558723 
L 109.8 211.558723 
L 109.8 211.558723 
L 109.8 211.558723 
L 109.8 211.558723 
L 109.8 211.558723 
L 109.8 211.558723 
L 109.8 211.558723 
L 109.8 211.558723 
L 109.8 211.558723 
L 109.8 211.558723 
L 109.8 211.558723 
L 109.8 211.558723 
L 109.8 211.558723 
L 109.8 211.558723 
L 109.8 211.558723 
L 109.8 211.558723 
L 109.8 211.558723 
L 109.8 211.558723 
L 109.8 211.558723 
L 109.8 211.558723 
L 109.8 211.558723 
L 109.8 211.558723 
L 109.8 211.558723 
L 109.8 211.558723 
L 109.8 211.558723 
L 109.8 211.558723 
L 109.8 211.558723 
L 109.8 211.558723 
L 109.8 211.558723 
L 109.8 211.558723 
L 109.8 211.558723 
L 109.8 211.558723 
L 109.8 211.558723 
L 109.8 211.558723 
L 130.090909 211.558723 
L 130.090909 211.558723 
L 130.090909 211.558723 
L 130.090909 211.558723 
L 130.090909 211.558723 
L 130.090909 211.558723 
L 130.090909 211.558723 
L 130.090909 211.558723 
L 130.090909 211.558723 
L 130.090909 211.558723 
L 130.090909 211.558723 
L 130.090909 211.558723 
L 130.090909 211.558723 
L 130.090909 211.558723 
L 130.090909 211.558723 
L 130.090909 211.558723 
L 130.090909 211.558723 
L 130.090909 211.558723 
L 130.090909 211.558723 
L 130.090909 211.558723 
L 130.090909 211.558723 
L 130.090909 211.558723 
L 130.090909 211.558723 
L 130.090909 211.558723 
L 130.090909 211.558723 
L 130.090909 211.558723 
L 130.090909 211.558723 
L 130.090909 211.558723 
L 130.090909 211.558723 
L 130.090909 211.558723 
L 130.090909 211.558723 
L 130.090909 211.558723 
L 130.090909 211.558723 
L 130.090909 211.558723 
L 130.090909 211.558723 
L 130.090909 211.558723 
L 130.090909 211.558723 
L 130.090909 211.558723 
L 130.090909 211.558723 
L 130.090909 211.558723 
L 130.090909 211.558723 
L 130.090909 211.558723 
L 130.090909 211.558723 
L 130.090909 211.558723 
L 130.090909 211.558723 
L 130.090909 211.558723 
L 130.090909 211.558723 
L 130.090909 211.558723 
L 130.090909 211.558723 
L 130.090909 211.558723 
L 130.090909 211.558723 
L 130.090909 211.558723 
L 130.090909 211.558723 
L 130.090909 211.558723 
L 130.090909 211.558723 
L 130.090909 211.558723 
L 130.090909 211.558723 
L 130.090909 211.558723 
L 130.090909 211.558723 
L 130.090909 211.558723 
L 130.090909 211.558723 
L 130.090909 211.558723 
L 130.090909 211.558723 
L 130.090909 211.558723 
L 130.090909 211.558723 
L 130.090909 211.558723 
L 130.090909 211.558723 
L 130.090909 211.558723 
L 130.090909 211.558723 
L 130.090909 211.558723 
L 130.090909 211.558723 
L 130.090909 211.558723 
L 130.090909 211.558723 
L 130.090909 211.558723 
L 130.090909 211.558723 
L 130.090909 211.558723 
L 130.090909 211.558723 
L 130.090909 211.558723 
L 130.090909 211.558723 
L 130.090909 211.558723 
L 130.090909 211.558723 
L 130.090909 211.558723 
L 130.090909 211.558723 
L 130.090909 211.558723 
L 130.090909 211.558723 
L 130.090909 211.558723 
L 130.090909 211.558723 
L 130.090909 211.558723 
L 130.090909 211.558723 
L 130.090909 211.558723 
L 130.090909 211.558723 
L 130.090909 211.558723 
L 130.090909 211.558723 
L 130.090909 211.558723 
L 130.090909 211.558723 
L 130.090909 211.558723 
L 130.090909 211.558723 
L 130.090909 211.558723 
L 130.090909 211.558723 
L 130.090909 211.558723 
L 130.090909 211.558723 
z
" style="fill:#1f77b4;fill-opacity:0.3;"/>
   </g>
   <g id="PolyCollection_3">
    <path clip-path="url(#p934df5371e)" d="M 164.397042 242.116364 
L 156.657503 242.116364 
L 156.627059 241.753179 
L 156.597664 241.389994 
L 156.569218 241.026809 
L 156.541609 240.663624 
L 156.514719 240.30044 
L 156.488421 239.937255 
L 156.462578 239.57407 
L 156.437047 239.210885 
L 156.41168 238.8477 
L 156.386319 238.484515 
L 156.360803 238.121331 
L 156.334965 237.758146 
L 156.308633 237.394961 
L 156.281633 237.031776 
L 156.253788 236.668591 
L 156.224919 236.305407 
L 156.194845 235.942222 
L 156.163387 235.579037 
L 156.130366 235.215852 
L 156.095604 234.852667 
L 156.058927 234.489483 
L 156.020164 234.126298 
L 155.97915 233.763113 
L 155.935724 233.399928 
L 155.889734 233.036743 
L 155.841034 232.673558 
L 155.789486 232.310374 
L 155.734965 231.947189 
L 155.677352 231.584004 
L 155.616542 231.220819 
L 155.552443 230.857634 
L 155.484973 230.49445 
L 155.414067 230.131265 
L 155.339672 229.76808 
L 155.26175 229.404895 
L 155.180282 229.04171 
L 155.09526 228.678525 
L 155.006697 228.315341 
L 154.91462 227.952156 
L 154.819075 227.588971 
L 154.720126 227.225786 
L 154.617852 226.862601 
L 154.512352 226.499417 
L 154.403742 226.136232 
L 154.292156 225.773047 
L 154.177745 225.409862 
L 154.060677 225.046677 
L 153.941137 224.683493 
L 153.819326 224.320308 
L 153.695462 223.957123 
L 153.569777 223.593938 
L 153.442518 223.230753 
L 153.313946 222.867568 
L 153.184335 222.504384 
L 153.053971 222.141199 
L 152.923151 221.778014 
L 152.792182 221.414829 
L 152.661381 221.051644 
L 152.531071 220.68846 
L 152.401583 220.325275 
L 152.273254 219.96209 
L 152.146424 219.598905 
L 152.021436 219.23572 
L 151.898635 218.872535 
L 151.778367 218.509351 
L 151.660975 218.146166 
L 151.546801 217.782981 
L 151.436182 217.419796 
L 151.329452 217.056611 
L 151.226935 216.693427 
L 151.128951 216.330242 
L 151.035808 215.967057 
L 150.947806 215.603872 
L 150.86523 215.240687 
L 150.788356 214.877503 
L 150.717445 214.514318 
L 150.652741 214.151133 
L 150.594476 213.787948 
L 150.542861 213.424763 
L 150.498093 213.061578 
L 150.460349 212.698394 
L 150.429787 212.335209 
L 150.406545 211.972024 
L 150.390741 211.608839 
L 150.382473 211.245654 
L 150.381818 210.88247 
L 150.388832 210.519285 
L 150.403548 210.1561 
L 150.42598 209.792915 
L 150.456118 209.42973 
L 150.493935 209.066545 
L 150.539378 208.703361 
L 150.592376 208.340176 
L 150.652838 207.976991 
L 150.720653 207.613806 
L 150.795689 207.250621 
L 150.877798 206.887437 
L 150.966812 206.524252 
L 151.062547 206.161067 
L 169.991998 206.161067 
L 169.991998 206.161067 
L 170.087733 206.524252 
L 170.176747 206.887437 
L 170.258856 207.250621 
L 170.333893 207.613806 
L 170.401707 207.976991 
L 170.46217 208.340176 
L 170.515168 208.703361 
L 170.560611 209.066545 
L 170.598427 209.42973 
L 170.628566 209.792915 
L 170.650998 210.1561 
L 170.665714 210.519285 
L 170.672727 210.88247 
L 170.672072 211.245654 
L 170.663805 211.608839 
L 170.648001 211.972024 
L 170.624759 212.335209 
L 170.594196 212.698394 
L 170.556452 213.061578 
L 170.511684 213.424763 
L 170.46007 213.787948 
L 170.401804 214.151133 
L 170.337101 214.514318 
L 170.266189 214.877503 
L 170.189315 215.240687 
L 170.10674 215.603872 
L 170.018737 215.967057 
L 169.925594 216.330242 
L 169.82761 216.693427 
L 169.725094 217.056611 
L 169.618363 217.419796 
L 169.507745 217.782981 
L 169.393571 218.146166 
L 169.276179 218.509351 
L 169.15591 218.872535 
L 169.033109 219.23572 
L 168.908122 219.598905 
L 168.781291 219.96209 
L 168.652962 220.325275 
L 168.523475 220.68846 
L 168.393165 221.051644 
L 168.262363 221.414829 
L 168.131394 221.778014 
L 168.000574 222.141199 
L 167.87021 222.504384 
L 167.740599 222.867568 
L 167.612028 223.230753 
L 167.484769 223.593938 
L 167.359084 223.957123 
L 167.235219 224.320308 
L 167.113409 224.683493 
L 166.993868 225.046677 
L 166.8768 225.409862 
L 166.762389 225.773047 
L 166.650803 226.136232 
L 166.542193 226.499417 
L 166.436693 226.862601 
L 166.33442 227.225786 
L 166.23547 227.588971 
L 166.139926 227.952156 
L 166.047849 228.315341 
L 165.959286 228.678525 
L 165.874264 229.04171 
L 165.792795 229.404895 
L 165.714874 229.76808 
L 165.640479 230.131265 
L 165.569572 230.49445 
L 165.502103 230.857634 
L 165.438003 231.220819 
L 165.377194 231.584004 
L 165.319581 231.947189 
L 165.265059 232.310374 
L 165.213512 232.673558 
L 165.164811 233.036743 
L 165.118821 233.399928 
L 165.075396 233.763113 
L 165.034381 234.126298 
L 164.995619 234.489483 
L 164.958941 234.852667 
L 164.924179 235.215852 
L 164.891158 235.579037 
L 164.8597 235.942222 
L 164.829626 236.305407 
L 164.800757 236.668591 
L 164.772912 237.031776 
L 164.745913 237.394961 
L 164.719581 237.758146 
L 164.693743 238.121331 
L 164.668226 238.484515 
L 164.642866 238.8477 
L 164.617498 239.210885 
L 164.591968 239.57407 
L 164.566125 239.937255 
L 164.539826 240.30044 
L 164.512936 240.663624 
L 164.485328 241.026809 
L 164.456881 241.389994 
L 164.427487 241.753179 
L 164.397042 242.116364 
z
" style="fill:#1f77b4;fill-opacity:0.3;"/>
   </g>
   <g id="PolyCollection_4">
    <path clip-path="url(#p934df5371e)" d="M 203.903299 217.661772 
L 198.314883 217.661772 
L 198.089511 217.493198 
L 197.853724 217.324624 
L 197.607762 217.15605 
L 197.351971 216.987476 
L 197.08681 216.818902 
L 196.81286 216.650328 
L 196.530833 216.481755 
L 196.241575 216.313181 
L 195.946066 216.144607 
L 195.645427 215.976033 
L 195.340909 215.807459 
L 195.033894 215.638885 
L 194.72588 215.470311 
L 194.418475 215.301738 
L 194.11338 215.133164 
L 193.812371 214.96459 
L 193.517285 214.796016 
L 193.229995 214.627442 
L 192.952389 214.458868 
L 192.686348 214.290294 
L 192.433721 214.12172 
L 192.196301 213.953147 
L 191.975798 213.784573 
L 191.773816 213.615999 
L 191.591827 213.447425 
L 191.431151 213.278851 
L 191.292927 213.110277 
L 191.178097 212.941703 
L 191.087387 212.77313 
L 191.021286 212.604556 
L 190.98004 212.435982 
L 190.963636 212.267408 
L 190.971804 212.098834 
L 191.004009 211.93026 
L 191.059463 211.761686 
L 191.137135 211.593113 
L 191.235765 211.424539 
L 191.353887 211.255965 
L 191.489859 211.087391 
L 191.641892 210.918817 
L 191.80809 210.750243 
L 191.986486 210.581669 
L 192.175085 210.413095 
L 192.371902 210.244522 
L 192.575008 210.075948 
L 192.782562 209.907374 
L 192.992848 209.7388 
L 193.204303 209.570226 
L 193.415541 209.401652 
L 193.625366 209.233078 
L 193.832786 209.064505 
L 194.037012 208.895931 
L 194.237456 208.727357 
L 194.433715 208.558783 
L 194.625561 208.390209 
L 194.812916 208.221635 
L 194.99583 208.053061 
L 195.174456 207.884488 
L 195.349022 207.715914 
L 195.519806 207.54734 
L 195.687111 207.378766 
L 195.851248 207.210192 
L 196.012509 207.041618 
L 196.171161 206.873044 
L 196.327428 206.704471 
L 196.481485 206.535897 
L 196.633454 206.367323 
L 196.783403 206.198749 
L 196.931344 206.030175 
L 197.07724 205.861601 
L 197.221006 205.693027 
L 197.362515 205.524453 
L 197.501606 205.35588 
L 197.63809 205.187306 
L 197.771757 205.018732 
L 197.902383 204.850158 
L 198.029737 204.681584 
L 198.153589 204.51301 
L 198.273717 204.344436 
L 198.389915 204.175863 
L 198.501998 204.007289 
L 198.609812 203.838715 
L 198.713241 203.670141 
L 198.812211 203.501567 
L 198.906696 203.332993 
L 198.996724 203.164419 
L 199.08238 202.995846 
L 199.163803 202.827272 
L 199.241191 202.658698 
L 199.314794 202.490124 
L 199.384911 202.32155 
L 199.451881 202.152976 
L 199.516074 201.984402 
L 199.57788 201.815828 
L 199.637701 201.647255 
L 199.69593 201.478681 
L 199.752945 201.310107 
L 199.809095 201.141533 
L 199.864687 200.972959 
L 202.353495 200.972959 
L 202.353495 200.972959 
L 202.409087 201.141533 
L 202.465237 201.310107 
L 202.522252 201.478681 
L 202.580481 201.647255 
L 202.640301 201.815828 
L 202.702108 201.984402 
L 202.766301 202.152976 
L 202.83327 202.32155 
L 202.903387 202.490124 
L 202.976991 202.658698 
L 203.054379 202.827272 
L 203.135802 202.995846 
L 203.221458 203.164419 
L 203.311486 203.332993 
L 203.405971 203.501567 
L 203.504941 203.670141 
L 203.60837 203.838715 
L 203.716184 204.007289 
L 203.828267 204.175863 
L 203.944465 204.344436 
L 204.064593 204.51301 
L 204.188445 204.681584 
L 204.315799 204.850158 
L 204.446425 205.018732 
L 204.580092 205.187306 
L 204.716576 205.35588 
L 204.855667 205.524453 
L 204.997176 205.693027 
L 205.140941 205.861601 
L 205.286837 206.030175 
L 205.434779 206.198749 
L 205.584728 206.367323 
L 205.736697 206.535897 
L 205.890754 206.704471 
L 206.047021 206.873044 
L 206.205673 207.041618 
L 206.366934 207.210192 
L 206.531071 207.378766 
L 206.698376 207.54734 
L 206.86916 207.715914 
L 207.043725 207.884488 
L 207.222352 208.053061 
L 207.405266 208.221635 
L 207.592621 208.390209 
L 207.784467 208.558783 
L 207.980726 208.727357 
L 208.181169 208.895931 
L 208.385396 209.064505 
L 208.592816 209.233078 
L 208.802641 209.401652 
L 209.013878 209.570226 
L 209.225334 209.7388 
L 209.43562 209.907374 
L 209.643174 210.075948 
L 209.84628 210.244522 
L 210.043097 210.413095 
L 210.231696 210.581669 
L 210.410092 210.750243 
L 210.57629 210.918817 
L 210.728323 211.087391 
L 210.864295 211.255965 
L 210.982417 211.424539 
L 211.081046 211.593113 
L 211.158719 211.761686 
L 211.214173 211.93026 
L 211.246378 212.098834 
L 211.254545 212.267408 
L 211.238142 212.435982 
L 211.196896 212.604556 
L 211.130795 212.77313 
L 211.040085 212.941703 
L 210.925255 213.110277 
L 210.787031 213.278851 
L 210.626355 213.447425 
L 210.444366 213.615999 
L 210.242384 213.784573 
L 210.021881 213.953147 
L 209.78446 214.12172 
L 209.531834 214.290294 
L 209.265793 214.458868 
L 208.988187 214.627442 
L 208.700897 214.796016 
L 208.405811 214.96459 
L 208.104802 215.133164 
L 207.799707 215.301738 
L 207.492302 215.470311 
L 207.184288 215.638885 
L 206.877273 215.807459 
L 206.572755 215.976033 
L 206.272116 216.144607 
L 205.976607 216.313181 
L 205.687348 216.481755 
L 205.405322 216.650328 
L 205.131372 216.818902 
L 204.866211 216.987476 
L 204.61042 217.15605 
L 204.364458 217.324624 
L 204.128671 217.493198 
L 203.903299 217.661772 
z
" style="fill:#1f77b4;fill-opacity:0.3;"/>
   </g>
   <g id="PolyCollection_5">
    <path clip-path="url(#p934df5371e)" d="M 242.36147 231.190387 
L 241.020349 231.190387 
L 240.873341 230.474638 
L 240.715456 229.75889 
L 240.549488 229.043142 
L 240.377477 228.327394 
L 240.199896 227.611646 
L 240.014935 226.895898 
L 239.818098 226.18015 
L 239.602236 225.464402 
L 239.358095 224.748654 
L 239.075323 224.032905 
L 238.743795 223.317157 
L 238.355033 222.601409 
L 237.903539 221.885661 
L 237.387875 221.169913 
L 236.81143 220.454165 
L 236.182832 219.738417 
L 235.516016 219.022669 
L 234.829896 218.30692 
L 234.147604 217.591172 
L 233.495234 216.875424 
L 232.900091 216.159676 
L 232.388528 215.443928 
L 231.98359 214.72818 
L 231.702745 214.012432 
L 231.556106 213.296684 
L 231.545455 212.580936 
L 231.664299 211.865187 
L 231.899014 211.149439 
L 232.230872 210.433691 
L 232.638591 209.717943 
L 233.100919 209.002195 
L 233.598769 208.286447 
L 234.116531 207.570699 
L 234.642434 206.854951 
L 235.16804 206.139202 
L 235.68721 205.423454 
L 236.194969 204.707706 
L 236.686699 203.991958 
L 237.157865 203.27621 
L 237.604288 202.560462 
L 238.022694 201.844714 
L 238.411193 201.128966 
L 238.769385 200.413218 
L 239.097993 199.697469 
L 239.398181 198.981721 
L 239.670838 198.265973 
L 239.916187 197.550225 
L 240.133871 196.834477 
L 240.3235 196.118729 
L 240.485424 195.402981 
L 240.62138 194.687233 
L 240.734765 193.971484 
L 240.830385 193.255736 
L 240.913755 192.539988 
L 240.99018 191.82424 
L 241.063873 191.108492 
L 241.137377 190.392744 
L 241.211397 189.676996 
L 241.285035 188.961248 
L 241.356318 188.2455 
L 241.422831 187.529751 
L 241.482296 186.814003 
L 241.532978 186.098255 
L 241.573874 185.382507 
L 241.604704 184.666759 
L 241.625779 183.951011 
L 241.637827 183.235263 
L 241.641838 182.519515 
L 241.638993 181.803766 
L 241.630649 181.088018 
L 241.618377 180.37227 
L 241.603971 179.656522 
L 241.589397 178.940774 
L 241.576642 178.225026 
L 241.567484 177.509278 
L 241.563224 176.79353 
L 241.564471 176.077782 
L 241.571025 175.362033 
L 241.581915 174.646285 
L 241.595576 173.930537 
L 241.610113 173.214789 
L 241.623587 172.499041 
L 241.63426 171.783293 
L 241.640757 171.067545 
L 241.64215 170.351797 
L 241.637987 169.636048 
L 241.628287 168.9203 
L 241.61353 168.204552 
L 241.594631 167.488804 
L 241.572891 166.773056 
L 241.549908 166.057308 
L 241.527445 165.34156 
L 241.507266 164.625812 
L 241.49097 163.910064 
L 241.479845 163.194315 
L 241.474766 162.478567 
L 241.476136 161.762819 
L 241.483861 161.047071 
L 241.497363 160.331323 
L 241.884455 160.331323 
L 241.884455 160.331323 
L 241.897957 161.047071 
L 241.905682 161.762819 
L 241.907052 162.478567 
L 241.901974 163.194315 
L 241.890848 163.910064 
L 241.874552 164.625812 
L 241.854373 165.34156 
L 241.83191 166.057308 
L 241.808927 166.773056 
L 241.787187 167.488804 
L 241.768288 168.204552 
L 241.753531 168.9203 
L 241.743831 169.636048 
L 241.739668 170.351797 
L 241.741061 171.067545 
L 241.747558 171.783293 
L 241.758231 172.499041 
L 241.771706 173.214789 
L 241.786242 173.930537 
L 241.799903 174.646285 
L 241.810793 175.362033 
L 241.817347 176.077782 
L 241.818594 176.79353 
L 241.814335 177.509278 
L 241.805176 178.225026 
L 241.792421 178.940774 
L 241.777847 179.656522 
L 241.763441 180.37227 
L 241.751169 181.088018 
L 241.742825 181.803766 
L 241.73998 182.519515 
L 241.743991 183.235263 
L 241.756039 183.951011 
L 241.777114 184.666759 
L 241.807944 185.382507 
L 241.84884 186.098255 
L 241.899522 186.814003 
L 241.958988 187.529751 
L 242.0255 188.2455 
L 242.096783 188.961248 
L 242.170421 189.676996 
L 242.244441 190.392744 
L 242.317946 191.108492 
L 242.391638 191.82424 
L 242.468063 192.539988 
L 242.551434 193.255736 
L 242.647053 193.971484 
L 242.760438 194.687233 
L 242.896394 195.402981 
L 243.058318 196.118729 
L 243.247948 196.834477 
L 243.465631 197.550225 
L 243.71098 198.265973 
L 243.983637 198.981721 
L 244.283825 199.697469 
L 244.612434 200.413218 
L 244.970625 201.128966 
L 245.359124 201.844714 
L 245.77753 202.560462 
L 246.223953 203.27621 
L 246.695119 203.991958 
L 247.186849 204.707706 
L 247.694609 205.423454 
L 248.213778 206.139202 
L 248.739384 206.854951 
L 249.265287 207.570699 
L 249.783049 208.286447 
L 250.280899 209.002195 
L 250.743227 209.717943 
L 251.150946 210.433691 
L 251.482804 211.149439 
L 251.717519 211.865187 
L 251.836364 212.580936 
L 251.825712 213.296684 
L 251.679074 214.012432 
L 251.398228 214.72818 
L 250.99329 215.443928 
L 250.481728 216.159676 
L 249.886584 216.875424 
L 249.234214 217.591172 
L 248.551922 218.30692 
L 247.865802 219.022669 
L 247.198986 219.738417 
L 246.570389 220.454165 
L 245.993943 221.169913 
L 245.478279 221.885661 
L 245.026785 222.601409 
L 244.638024 223.317157 
L 244.306495 224.032905 
L 244.023724 224.748654 
L 243.779582 225.464402 
L 243.56372 226.18015 
L 243.366883 226.895898 
L 243.181923 227.611646 
L 243.004341 228.327394 
L 242.83233 229.043142 
L 242.666362 229.75889 
L 242.508477 230.474638 
L 242.36147 231.190387 
z
" style="fill:#1f77b4;fill-opacity:0.3;"/>
   </g>
   <g id="PolyCollection_6">
    <path clip-path="url(#p934df5371e)" d="M 282.859905 237.489222 
L 281.68555 237.489222 
L 281.462115 235.972892 
L 281.195531 234.456563 
L 280.889512 232.940234 
L 280.546039 231.423904 
L 280.160074 229.907575 
L 279.716026 228.391246 
L 279.189147 226.874917 
L 278.553096 225.358587 
L 277.791669 223.842258 
L 276.910081 222.325929 
L 275.940955 220.809599 
L 274.942552 219.29327 
L 273.990424 217.776941 
L 273.166017 216.260611 
L 272.545217 214.744282 
L 272.187742 213.227953 
L 272.127273 211.711624 
L 272.363882 210.195294 
L 272.862444 208.678965 
L 273.559954 207.162636 
L 274.380424 205.646306 
L 275.251519 204.129977 
L 276.116227 202.613648 
L 276.936399 201.097318 
L 277.689883 199.580989 
L 278.365607 198.06466 
L 278.960037 196.548331 
L 279.475564 195.032001 
L 279.91926 193.515672 
L 280.300579 191.999343 
L 280.628244 190.483013 
L 280.908011 188.966684 
L 281.142654 187.450355 
L 281.333956 185.934025 
L 281.484982 184.417696 
L 281.600894 182.901367 
L 281.68792 181.385038 
L 281.751668 179.868708 
L 281.796444 178.352379 
L 281.826227 176.83605 
L 281.846356 175.31972 
L 281.864199 173.803391 
L 281.887739 172.287062 
L 281.922726 170.770732 
L 281.970141 169.254403 
L 282.025607 167.738074 
L 282.081026 166.221745 
L 282.127452 164.705415 
L 282.157787 163.189086 
L 282.168434 161.672757 
L 282.159785 160.156427 
L 282.135887 158.640098 
L 282.103547 157.123769 
L 282.070923 155.60744 
L 282.045727 154.09111 
L 282.033356 152.574781 
L 282.035547 151.058452 
L 282.050059 149.542122 
L 282.071567 148.025793 
L 282.093523 146.509464 
L 282.110415 144.993134 
L 282.119667 143.476805 
L 282.122429 141.960476 
L 282.122854 140.444147 
L 282.126116 138.927817 
L 282.136063 137.411488 
L 282.153639 135.895159 
L 282.176794 134.378829 
L 282.20172 132.8625 
L 282.224595 131.346171 
L 282.242902 129.829841 
L 282.25585 128.313512 
L 282.264012 126.797183 
L 282.268621 125.280854 
L 282.270963 123.764524 
L 282.272036 122.248195 
L 282.272481 120.731866 
L 282.272647 119.215536 
L 282.272703 117.699207 
L 282.272721 116.182878 
L 282.272726 114.666548 
L 282.272727 113.150219 
L 282.272727 111.63389 
L 282.272726 110.117561 
L 282.272721 108.601231 
L 282.272706 107.084902 
L 282.272657 105.568573 
L 282.272518 104.052243 
L 282.272156 102.535914 
L 282.271311 101.019585 
L 282.269539 99.503256 
L 282.266203 97.986926 
L 282.26059 96.470597 
L 282.252207 94.954268 
L 282.241192 93.437938 
L 282.228679 91.921609 
L 282.216802 90.40528 
L 282.20819 88.88895 
L 282.205034 87.372621 
L 282.34042 87.372621 
L 282.34042 87.372621 
L 282.337264 88.88895 
L 282.328652 90.40528 
L 282.316776 91.921609 
L 282.304262 93.437938 
L 282.293248 94.954268 
L 282.284864 96.470597 
L 282.279252 97.986926 
L 282.275915 99.503256 
L 282.274143 101.019585 
L 282.273299 102.535914 
L 282.272937 104.052243 
L 282.272797 105.568573 
L 282.272748 107.084902 
L 282.272733 108.601231 
L 282.272729 110.117561 
L 282.272728 111.63389 
L 282.272728 113.150219 
L 282.272729 114.666548 
L 282.272734 116.182878 
L 282.272751 117.699207 
L 282.272807 119.215536 
L 282.272974 120.731866 
L 282.273418 122.248195 
L 282.274491 123.764524 
L 282.276833 125.280854 
L 282.281443 126.797183 
L 282.289604 128.313512 
L 282.302552 129.829841 
L 282.320859 131.346171 
L 282.343735 132.8625 
L 282.368661 134.378829 
L 282.391816 135.895159 
L 282.409392 137.411488 
L 282.419338 138.927817 
L 282.422601 140.444147 
L 282.423026 141.960476 
L 282.425787 143.476805 
L 282.43504 144.993134 
L 282.451932 146.509464 
L 282.473887 148.025793 
L 282.495395 149.542122 
L 282.509908 151.058452 
L 282.512098 152.574781 
L 282.499727 154.09111 
L 282.474531 155.60744 
L 282.441908 157.123769 
L 282.409567 158.640098 
L 282.38567 160.156427 
L 282.37702 161.672757 
L 282.387667 163.189086 
L 282.418003 164.705415 
L 282.464428 166.221745 
L 282.519847 167.738074 
L 282.575313 169.254403 
L 282.622728 170.770732 
L 282.657715 172.287062 
L 282.681256 173.803391 
L 282.699098 175.31972 
L 282.719228 176.83605 
L 282.74901 178.352379 
L 282.793786 179.868708 
L 282.857534 181.385038 
L 282.94456 182.901367 
L 283.060472 184.417696 
L 283.211498 185.934025 
L 283.4028 187.450355 
L 283.637443 188.966684 
L 283.91721 190.483013 
L 284.244876 191.999343 
L 284.626194 193.515672 
L 285.069891 195.032001 
L 285.585417 196.548331 
L 286.179848 198.06466 
L 286.855572 199.580989 
L 287.609056 201.097318 
L 288.429228 202.613648 
L 289.293935 204.129977 
L 290.16503 205.646306 
L 290.985501 207.162636 
L 291.683011 208.678965 
L 292.181573 210.195294 
L 292.418182 211.711624 
L 292.357712 213.227953 
L 292.000238 214.744282 
L 291.379438 216.260611 
L 290.55503 217.776941 
L 289.602903 219.29327 
L 288.6045 220.809599 
L 287.635374 222.325929 
L 286.753786 223.842258 
L 285.992358 225.358587 
L 285.356308 226.874917 
L 284.829429 228.391246 
L 284.385381 229.907575 
L 283.999416 231.423904 
L 283.655942 232.940234 
L 283.349924 234.456563 
L 283.08334 235.972892 
L 282.859905 237.489222 
z
" style="fill:#1f77b4;fill-opacity:0.3;"/>
   </g>
   <g id="PolyCollection_7">
    <path clip-path="url(#p934df5371e)" d="M 324.249709 232.49167 
L 321.459382 232.49167 
L 321.289159 231.729535 
L 321.100781 230.9674 
L 320.891713 230.205266 
L 320.659338 229.443131 
L 320.401132 228.680996 
L 320.114881 227.918861 
L 319.798909 227.156726 
L 319.452316 226.394592 
L 319.075195 225.632457 
L 318.668816 224.870322 
L 318.235745 224.108187 
L 317.779898 223.346053 
L 317.306501 222.583918 
L 316.821962 221.821783 
L 316.333663 221.059648 
L 315.849661 220.297514 
L 315.378337 219.535379 
L 314.92801 218.773244 
L 314.506532 218.011109 
L 314.120911 217.248975 
L 313.776984 216.48684 
L 313.479155 215.724705 
L 313.230239 214.96257 
L 313.031408 214.200436 
L 312.882252 213.438301 
L 312.780942 212.676166 
L 312.724494 211.914031 
L 312.709091 211.151897 
L 312.730456 210.389762 
L 312.784222 209.627627 
L 312.866279 208.865492 
L 312.973065 208.103358 
L 313.101764 207.341223 
L 313.250415 206.579088 
L 313.417907 205.816953 
L 313.603879 205.054819 
L 313.808528 204.292684 
L 314.032362 203.530549 
L 314.275924 202.768414 
L 314.539509 202.00628 
L 314.822919 201.244145 
L 315.125279 200.48201 
L 315.44492 199.719875 
L 315.779351 198.957741 
L 316.125316 198.195606 
L 316.478923 197.433471 
L 316.835831 196.671336 
L 317.191479 195.909202 
L 317.541329 195.147067 
L 317.881105 194.384932 
L 318.207005 193.622797 
L 318.515882 192.860663 
L 318.805371 192.098528 
L 319.073963 191.336393 
L 319.321029 190.574258 
L 319.546786 189.812124 
L 319.752217 189.049989 
L 319.938959 188.287854 
L 320.109148 187.525719 
L 320.265258 186.763585 
L 320.409917 186.00145 
L 320.545736 185.239315 
L 320.67514 184.47718 
L 320.80023 183.715046 
L 320.922666 182.952911 
L 321.043594 182.190776 
L 321.163603 181.428641 
L 321.282737 180.666507 
L 321.400531 179.904372 
L 321.516088 179.142237 
L 321.628188 178.380102 
L 321.735404 177.617968 
L 321.836232 176.855833 
L 321.929221 176.093698 
L 322.013086 175.331563 
L 322.086805 174.569428 
L 322.149693 173.807294 
L 322.20144 173.045159 
L 322.242128 172.283024 
L 322.272213 171.520889 
L 322.292491 170.758755 
L 322.304032 169.99662 
L 322.308117 169.234485 
L 322.306154 168.47235 
L 322.299609 167.710216 
L 322.289933 166.948081 
L 322.278505 166.185946 
L 322.266588 165.423811 
L 322.255297 164.661677 
L 322.24559 163.899542 
L 322.238258 163.137407 
L 322.233934 162.375272 
L 322.233104 161.613138 
L 322.236117 160.851003 
L 322.243199 160.088868 
L 322.254459 159.326733 
L 322.269897 158.564599 
L 322.289404 157.802464 
L 322.312761 157.040329 
L 323.39633 157.040329 
L 323.39633 157.040329 
L 323.419687 157.802464 
L 323.439193 158.564599 
L 323.454632 159.326733 
L 323.465892 160.088868 
L 323.472974 160.851003 
L 323.475987 161.613138 
L 323.475157 162.375272 
L 323.470833 163.137407 
L 323.463501 163.899542 
L 323.453794 164.661677 
L 323.442503 165.423811 
L 323.430586 166.185946 
L 323.419158 166.948081 
L 323.409482 167.710216 
L 323.402937 168.47235 
L 323.400974 169.234485 
L 323.405059 169.99662 
L 323.4166 170.758755 
L 323.436878 171.520889 
L 323.466963 172.283024 
L 323.507651 173.045159 
L 323.559398 173.807294 
L 323.622286 174.569428 
L 323.696005 175.331563 
L 323.77987 176.093698 
L 323.872859 176.855833 
L 323.973687 177.617968 
L 324.080902 178.380102 
L 324.193003 179.142237 
L 324.30856 179.904372 
L 324.426353 180.666507 
L 324.545487 181.428641 
L 324.665497 182.190776 
L 324.786424 182.952911 
L 324.908861 183.715046 
L 325.033951 184.47718 
L 325.163355 185.239315 
L 325.299173 186.00145 
L 325.443833 186.763585 
L 325.599942 187.525719 
L 325.770132 188.287854 
L 325.956874 189.049989 
L 326.162305 189.812124 
L 326.388062 190.574258 
L 326.635128 191.336393 
L 326.90372 192.098528 
L 327.193209 192.860663 
L 327.502086 193.622797 
L 327.827986 194.384932 
L 328.167761 195.147067 
L 328.517612 195.909202 
L 328.87326 196.671336 
L 329.230168 197.433471 
L 329.583774 198.195606 
L 329.92974 198.957741 
L 330.264171 199.719875 
L 330.583812 200.48201 
L 330.886172 201.244145 
L 331.169582 202.00628 
L 331.433167 202.768414 
L 331.676729 203.530549 
L 331.900563 204.292684 
L 332.105212 205.054819 
L 332.291184 205.816953 
L 332.458676 206.579088 
L 332.607327 207.341223 
L 332.736026 208.103358 
L 332.842811 208.865492 
L 332.924869 209.627627 
L 332.978635 210.389762 
L 333 211.151897 
L 332.984597 211.914031 
L 332.928149 212.676166 
L 332.826839 213.438301 
L 332.677683 214.200436 
L 332.478852 214.96257 
L 332.229936 215.724705 
L 331.932107 216.48684 
L 331.58818 217.248975 
L 331.202559 218.011109 
L 330.781081 218.773244 
L 330.330753 219.535379 
L 329.85943 220.297514 
L 329.375428 221.059648 
L 328.887129 221.821783 
L 328.40259 222.583918 
L 327.929192 223.346053 
L 327.473346 224.108187 
L 327.040275 224.870322 
L 326.633896 225.632457 
L 326.256775 226.394592 
L 325.910182 227.156726 
L 325.59421 227.918861 
L 325.307959 228.680996 
L 325.049753 229.443131 
L 324.817378 230.205266 
L 324.60831 230.9674 
L 324.419931 231.729535 
L 324.249709 232.49167 
z
" style="fill:#1f77b4;fill-opacity:0.3;"/>
   </g>
   <g id="PolyCollection_8">
    <path clip-path="url(#p934df5371e)" d="M 370.563725 184.734866 
L 356.309003 184.734866 
L 356.231132 183.317783 
L 356.154415 181.9007 
L 356.078847 180.483617 
L 356.004424 179.066534 
L 355.931138 177.64945 
L 355.858978 176.232367 
L 355.787932 174.815284 
L 355.717985 173.398201 
L 355.649121 171.981118 
L 355.581323 170.564035 
L 355.514572 169.146952 
L 355.448847 167.729869 
L 355.384128 166.312785 
L 355.320392 164.895702 
L 355.257617 163.478619 
L 355.195781 162.061536 
L 355.13486 160.644453 
L 355.074834 159.22737 
L 355.01568 157.810287 
L 354.957376 156.393204 
L 354.899902 154.97612 
L 354.843239 153.559037 
L 354.78737 152.141954 
L 354.732277 150.724871 
L 354.677946 149.307788 
L 354.624365 147.890705 
L 354.571523 146.473622 
L 354.519411 145.056538 
L 354.468024 143.639455 
L 354.417359 142.222372 
L 354.367414 140.805289 
L 354.318193 139.388206 
L 354.2697 137.971123 
L 354.221945 136.55404 
L 354.174937 135.136957 
L 354.128693 133.719873 
L 354.08323 132.30279 
L 354.038569 130.885707 
L 353.994734 129.468624 
L 353.951754 128.051541 
L 353.90966 126.634458 
L 353.868484 125.217375 
L 353.828266 123.800292 
L 353.789045 122.383208 
L 353.750865 120.966125 
L 353.713773 119.549042 
L 353.677817 118.131959 
L 353.643049 116.714876 
L 353.609524 115.297793 
L 353.577299 113.88071 
L 353.546432 112.463627 
L 353.516986 111.046543 
L 353.489021 109.62946 
L 353.462604 108.212377 
L 353.4378 106.795294 
L 353.414677 105.378211 
L 353.393301 103.961128 
L 353.373743 102.544045 
L 353.356071 101.126961 
L 353.340355 99.709878 
L 353.326666 98.292795 
L 353.315071 96.875712 
L 353.305641 95.458629 
L 353.298443 94.041546 
L 353.293545 92.624463 
L 353.291012 91.20738 
L 353.290909 89.790296 
L 353.293299 88.373213 
L 353.298242 86.95613 
L 353.305798 85.539047 
L 353.316021 84.121964 
L 353.328965 82.704881 
L 353.344682 81.287798 
L 353.363217 79.870715 
L 353.384616 78.453631 
L 353.408918 77.036548 
L 353.436161 75.619465 
L 353.466378 74.202382 
L 353.499597 72.785299 
L 353.535843 71.368216 
L 353.575138 69.951133 
L 353.617496 68.53405 
L 353.66293 67.116966 
L 353.711446 65.699883 
L 353.763047 64.2828 
L 353.817729 62.865717 
L 353.875487 61.448634 
L 353.936307 60.031551 
L 354.000172 58.614468 
L 354.06706 57.197385 
L 354.136945 55.780301 
L 354.209793 54.363218 
L 354.28557 52.946135 
L 354.364232 51.529052 
L 354.445734 50.111969 
L 354.530025 48.694886 
L 354.617049 47.277803 
L 354.706746 45.860719 
L 354.799051 44.443636 
L 372.073676 44.443636 
L 372.073676 44.443636 
L 372.165982 45.860719 
L 372.255679 47.277803 
L 372.342703 48.694886 
L 372.426993 50.111969 
L 372.508495 51.529052 
L 372.587158 52.946135 
L 372.662934 54.363218 
L 372.735783 55.780301 
L 372.805667 57.197385 
L 372.872555 58.614468 
L 372.93642 60.031551 
L 372.99724 61.448634 
L 373.054998 62.865717 
L 373.109681 64.2828 
L 373.161282 65.699883 
L 373.209798 67.116966 
L 373.255231 68.53405 
L 373.29759 69.951133 
L 373.336884 71.368216 
L 373.37313 72.785299 
L 373.406349 74.202382 
L 373.436566 75.619465 
L 373.463809 77.036548 
L 373.488111 78.453631 
L 373.50951 79.870715 
L 373.528045 81.287798 
L 373.543762 82.704881 
L 373.556706 84.121964 
L 373.56693 85.539047 
L 373.574485 86.95613 
L 373.579428 88.373213 
L 373.581818 89.790296 
L 373.581715 91.20738 
L 373.579183 92.624463 
L 373.574284 94.041546 
L 373.567086 95.458629 
L 373.557656 96.875712 
L 373.546062 98.292795 
L 373.532372 99.709878 
L 373.516656 101.126961 
L 373.498985 102.544045 
L 373.479426 103.961128 
L 373.458051 105.378211 
L 373.434927 106.795294 
L 373.410123 108.212377 
L 373.383706 109.62946 
L 373.355742 111.046543 
L 373.326295 112.463627 
L 373.295428 113.88071 
L 373.263203 115.297793 
L 373.229678 116.714876 
L 373.194911 118.131959 
L 373.158955 119.549042 
L 373.121862 120.966125 
L 373.083682 122.383208 
L 373.044461 123.800292 
L 373.004243 125.217375 
L 372.963068 126.634458 
L 372.920973 128.051541 
L 372.877993 129.468624 
L 372.834158 130.885707 
L 372.789497 132.30279 
L 372.744034 133.719873 
L 372.69779 135.136957 
L 372.650783 136.55404 
L 372.603027 137.971123 
L 372.554534 139.388206 
L 372.505313 140.805289 
L 372.455369 142.222372 
L 372.404703 143.639455 
L 372.353316 145.056538 
L 372.301204 146.473622 
L 372.248362 147.890705 
L 372.194781 149.307788 
L 372.14045 150.724871 
L 372.085357 152.141954 
L 372.029488 153.559037 
L 371.972825 154.97612 
L 371.915352 156.393204 
L 371.857048 157.810287 
L 371.797893 159.22737 
L 371.737867 160.644453 
L 371.676947 162.061536 
L 371.615111 163.478619 
L 371.552336 164.895702 
L 371.4886 166.312785 
L 371.42388 167.729869 
L 371.358155 169.146952 
L 371.291404 170.564035 
L 371.223606 171.981118 
L 371.154742 173.398201 
L 371.084796 174.815284 
L 371.013749 176.232367 
L 370.941589 177.64945 
L 370.868303 179.066534 
L 370.79388 180.483617 
L 370.718313 181.9007 
L 370.641595 183.317783 
L 370.563725 184.734866 
z
" style="fill:#1f77b4;fill-opacity:0.3;"/>
   </g>
   <g id="matplotlib.axis_1">
    <g id="xtick_1">
     <g id="line2d_1">
      <defs>
       <path d="M 0 0 
L 0 3.5 
" id="m7f808c7337" style="stroke:#000000;stroke-width:0.8;"/>
      </defs>
      <g>
       <use style="stroke:#000000;stroke-width:0.8;" x="79.363636" xlink:href="#m7f808c7337" y="252"/>
      </g>
     </g>
     <g id="text_1">
      <!-- 5.0 -->
      <defs>
       <path d="M 10.796875 72.90625 
L 49.515625 72.90625 
L 49.515625 64.59375 
L 19.828125 64.59375 
L 19.828125 46.734375 
Q 21.96875 47.46875 24.109375 47.828125 
Q 26.265625 48.1875 28.421875 48.1875 
Q 40.625 48.1875 47.75 41.5 
Q 54.890625 34.8125 54.890625 23.390625 
Q 54.890625 11.625 47.5625 5.09375 
Q 40.234375 -1.421875 26.90625 -1.421875 
Q 22.3125 -1.421875 17.546875 -0.640625 
Q 12.796875 0.140625 7.71875 1.703125 
L 7.71875 11.625 
Q 12.109375 9.234375 16.796875 8.0625 
Q 21.484375 6.890625 26.703125 6.890625 
Q 35.15625 6.890625 40.078125 11.328125 
Q 45.015625 15.765625 45.015625 23.390625 
Q 45.015625 31 40.078125 35.4375 
Q 35.15625 39.890625 26.703125 39.890625 
Q 22.75 39.890625 18.8125 39.015625 
Q 14.890625 38.140625 10.796875 36.28125 
z
" id="DejaVuSans-35"/>
       <path d="M 10.6875 12.40625 
L 21 12.40625 
L 21 0 
L 10.6875 0 
z
" id="DejaVuSans-2e"/>
       <path d="M 31.78125 66.40625 
Q 24.171875 66.40625 20.328125 58.90625 
Q 16.5 51.421875 16.5 36.375 
Q 16.5 21.390625 20.328125 13.890625 
Q 24.171875 6.390625 31.78125 6.390625 
Q 39.453125 6.390625 43.28125 13.890625 
Q 47.125 21.390625 47.125 36.375 
Q 47.125 51.421875 43.28125 58.90625 
Q 39.453125 66.40625 31.78125 66.40625 
z
M 31.78125 74.21875 
Q 44.046875 74.21875 50.515625 64.515625 
Q 56.984375 54.828125 56.984375 36.375 
Q 56.984375 17.96875 50.515625 8.265625 
Q 44.046875 -1.421875 31.78125 -1.421875 
Q 19.53125 -1.421875 13.0625 8.265625 
Q 6.59375 17.96875 6.59375 36.375 
Q 6.59375 54.828125 13.0625 64.515625 
Q 19.53125 74.21875 31.78125 74.21875 
z
" id="DejaVuSans-30"/>
      </defs>
      <g transform="translate(71.412074 266.598437)scale(0.1 -0.1)">
       <use xlink:href="#DejaVuSans-35"/>
       <use x="63.623047" xlink:href="#DejaVuSans-2e"/>
       <use x="95.410156" xlink:href="#DejaVuSans-30"/>
      </g>
     </g>
    </g>
    <g id="xtick_2">
     <g id="line2d_2">
      <g>
       <use style="stroke:#000000;stroke-width:0.8;" x="119.945455" xlink:href="#m7f808c7337" y="252"/>
      </g>
     </g>
     <g id="text_2">
      <!-- 6.0 -->
      <defs>
       <path d="M 33.015625 40.375 
Q 26.375 40.375 22.484375 35.828125 
Q 18.609375 31.296875 18.609375 23.390625 
Q 18.609375 15.53125 22.484375 10.953125 
Q 26.375 6.390625 33.015625 6.390625 
Q 39.65625 6.390625 43.53125 10.953125 
Q 47.40625 15.53125 47.40625 23.390625 
Q 47.40625 31.296875 43.53125 35.828125 
Q 39.65625 40.375 33.015625 40.375 
z
M 52.59375 71.296875 
L 52.59375 62.3125 
Q 48.875 64.0625 45.09375 64.984375 
Q 41.3125 65.921875 37.59375 65.921875 
Q 27.828125 65.921875 22.671875 59.328125 
Q 17.53125 52.734375 16.796875 39.40625 
Q 19.671875 43.65625 24.015625 45.921875 
Q 28.375 48.1875 33.59375 48.1875 
Q 44.578125 48.1875 50.953125 41.515625 
Q 57.328125 34.859375 57.328125 23.390625 
Q 57.328125 12.15625 50.6875 5.359375 
Q 44.046875 -1.421875 33.015625 -1.421875 
Q 20.359375 -1.421875 13.671875 8.265625 
Q 6.984375 17.96875 6.984375 36.375 
Q 6.984375 53.65625 15.1875 63.9375 
Q 23.390625 74.21875 37.203125 74.21875 
Q 40.921875 74.21875 44.703125 73.484375 
Q 48.484375 72.75 52.59375 71.296875 
z
" id="DejaVuSans-36"/>
      </defs>
      <g transform="translate(111.993892 266.598437)scale(0.1 -0.1)">
       <use xlink:href="#DejaVuSans-36"/>
       <use x="63.623047" xlink:href="#DejaVuSans-2e"/>
       <use x="95.410156" xlink:href="#DejaVuSans-30"/>
      </g>
     </g>
    </g>
    <g id="xtick_3">
     <g id="line2d_3">
      <g>
       <use style="stroke:#000000;stroke-width:0.8;" x="160.527273" xlink:href="#m7f808c7337" y="252"/>
      </g>
     </g>
     <g id="text_3">
      <!-- 10.0 -->
      <defs>
       <path d="M 12.40625 8.296875 
L 28.515625 8.296875 
L 28.515625 63.921875 
L 10.984375 60.40625 
L 10.984375 69.390625 
L 28.421875 72.90625 
L 38.28125 72.90625 
L 38.28125 8.296875 
L 54.390625 8.296875 
L 54.390625 0 
L 12.40625 0 
z
" id="DejaVuSans-31"/>
      </defs>
      <g transform="translate(149.39446 266.598437)scale(0.1 -0.1)">
       <use xlink:href="#DejaVuSans-31"/>
       <use x="63.623047" xlink:href="#DejaVuSans-30"/>
       <use x="127.246094" xlink:href="#DejaVuSans-2e"/>
       <use x="159.033203" xlink:href="#DejaVuSans-30"/>
      </g>
     </g>
    </g>
    <g id="xtick_4">
     <g id="line2d_4">
      <g>
       <use style="stroke:#000000;stroke-width:0.8;" x="201.109091" xlink:href="#m7f808c7337" y="252"/>
      </g>
     </g>
     <g id="text_4">
      <!-- 11.0 -->
      <g transform="translate(189.976278 266.598437)scale(0.1 -0.1)">
       <use xlink:href="#DejaVuSans-31"/>
       <use x="63.623047" xlink:href="#DejaVuSans-31"/>
       <use x="127.246094" xlink:href="#DejaVuSans-2e"/>
       <use x="159.033203" xlink:href="#DejaVuSans-30"/>
      </g>
     </g>
    </g>
    <g id="xtick_5">
     <g id="line2d_5">
      <g>
       <use style="stroke:#000000;stroke-width:0.8;" x="241.690909" xlink:href="#m7f808c7337" y="252"/>
      </g>
     </g>
     <g id="text_5">
      <!-- 12.0 -->
      <defs>
       <path d="M 19.1875 8.296875 
L 53.609375 8.296875 
L 53.609375 0 
L 7.328125 0 
L 7.328125 8.296875 
Q 12.9375 14.109375 22.625 23.890625 
Q 32.328125 33.6875 34.8125 36.53125 
Q 39.546875 41.84375 41.421875 45.53125 
Q 43.3125 49.21875 43.3125 52.78125 
Q 43.3125 58.59375 39.234375 62.25 
Q 35.15625 65.921875 28.609375 65.921875 
Q 23.96875 65.921875 18.8125 64.3125 
Q 13.671875 62.703125 7.8125 59.421875 
L 7.8125 69.390625 
Q 13.765625 71.78125 18.9375 73 
Q 24.125 74.21875 28.421875 74.21875 
Q 39.75 74.21875 46.484375 68.546875 
Q 53.21875 62.890625 53.21875 53.421875 
Q 53.21875 48.921875 51.53125 44.890625 
Q 49.859375 40.875 45.40625 35.40625 
Q 44.1875 33.984375 37.640625 27.21875 
Q 31.109375 20.453125 19.1875 8.296875 
z
" id="DejaVuSans-32"/>
      </defs>
      <g transform="translate(230.558097 266.598437)scale(0.1 -0.1)">
       <use xlink:href="#DejaVuSans-31"/>
       <use x="63.623047" xlink:href="#DejaVuSans-32"/>
       <use x="127.246094" xlink:href="#DejaVuSans-2e"/>
       <use x="159.033203" xlink:href="#DejaVuSans-30"/>
      </g>
     </g>
    </g>
    <g id="xtick_6">
     <g id="line2d_6">
      <g>
       <use style="stroke:#000000;stroke-width:0.8;" x="282.272727" xlink:href="#m7f808c7337" y="252"/>
      </g>
     </g>
     <g id="text_6">
      <!-- 13.0 -->
      <defs>
       <path d="M 40.578125 39.3125 
Q 47.65625 37.796875 51.625 33 
Q 55.609375 28.21875 55.609375 21.1875 
Q 55.609375 10.40625 48.1875 4.484375 
Q 40.765625 -1.421875 27.09375 -1.421875 
Q 22.515625 -1.421875 17.65625 -0.515625 
Q 12.796875 0.390625 7.625 2.203125 
L 7.625 11.71875 
Q 11.71875 9.328125 16.59375 8.109375 
Q 21.484375 6.890625 26.8125 6.890625 
Q 36.078125 6.890625 40.9375 10.546875 
Q 45.796875 14.203125 45.796875 21.1875 
Q 45.796875 27.640625 41.28125 31.265625 
Q 36.765625 34.90625 28.71875 34.90625 
L 20.21875 34.90625 
L 20.21875 43.015625 
L 29.109375 43.015625 
Q 36.375 43.015625 40.234375 45.921875 
Q 44.09375 48.828125 44.09375 54.296875 
Q 44.09375 59.90625 40.109375 62.90625 
Q 36.140625 65.921875 28.71875 65.921875 
Q 24.65625 65.921875 20.015625 65.03125 
Q 15.375 64.15625 9.8125 62.3125 
L 9.8125 71.09375 
Q 15.4375 72.65625 20.34375 73.4375 
Q 25.25 74.21875 29.59375 74.21875 
Q 40.828125 74.21875 47.359375 69.109375 
Q 53.90625 64.015625 53.90625 55.328125 
Q 53.90625 49.265625 50.4375 45.09375 
Q 46.96875 40.921875 40.578125 39.3125 
z
" id="DejaVuSans-33"/>
      </defs>
      <g transform="translate(271.139915 266.598437)scale(0.1 -0.1)">
       <use xlink:href="#DejaVuSans-31"/>
       <use x="63.623047" xlink:href="#DejaVuSans-33"/>
       <use x="127.246094" xlink:href="#DejaVuSans-2e"/>
       <use x="159.033203" xlink:href="#DejaVuSans-30"/>
      </g>
     </g>
    </g>
    <g id="xtick_7">
     <g id="line2d_7">
      <g>
       <use style="stroke:#000000;stroke-width:0.8;" x="322.854545" xlink:href="#m7f808c7337" y="252"/>
      </g>
     </g>
     <g id="text_7">
      <!-- 14.0 -->
      <defs>
       <path d="M 37.796875 64.3125 
L 12.890625 25.390625 
L 37.796875 25.390625 
z
M 35.203125 72.90625 
L 47.609375 72.90625 
L 47.609375 25.390625 
L 58.015625 25.390625 
L 58.015625 17.1875 
L 47.609375 17.1875 
L 47.609375 0 
L 37.796875 0 
L 37.796875 17.1875 
L 4.890625 17.1875 
L 4.890625 26.703125 
z
" id="DejaVuSans-34"/>
      </defs>
      <g transform="translate(311.721733 266.598437)scale(0.1 -0.1)">
       <use xlink:href="#DejaVuSans-31"/>
       <use x="63.623047" xlink:href="#DejaVuSans-34"/>
       <use x="127.246094" xlink:href="#DejaVuSans-2e"/>
       <use x="159.033203" xlink:href="#DejaVuSans-30"/>
      </g>
     </g>
    </g>
    <g id="xtick_8">
     <g id="line2d_8">
      <g>
       <use style="stroke:#000000;stroke-width:0.8;" x="363.436364" xlink:href="#m7f808c7337" y="252"/>
      </g>
     </g>
     <g id="text_8">
      <!-- 15.0 -->
      <g transform="translate(352.303551 266.598437)scale(0.1 -0.1)">
       <use xlink:href="#DejaVuSans-31"/>
       <use x="63.623047" xlink:href="#DejaVuSans-35"/>
       <use x="127.246094" xlink:href="#DejaVuSans-2e"/>
       <use x="159.033203" xlink:href="#DejaVuSans-30"/>
      </g>
     </g>
    </g>
    <g id="text_9">
     <!-- Score -->
     <defs>
      <path d="M 53.515625 70.515625 
L 53.515625 60.890625 
Q 47.90625 63.578125 42.921875 64.890625 
Q 37.9375 66.21875 33.296875 66.21875 
Q 25.25 66.21875 20.875 63.09375 
Q 16.5 59.96875 16.5 54.203125 
Q 16.5 49.359375 19.40625 46.890625 
Q 22.3125 44.4375 30.421875 42.921875 
L 36.375 41.703125 
Q 47.40625 39.59375 52.65625 34.296875 
Q 57.90625 29 57.90625 20.125 
Q 57.90625 9.515625 50.796875 4.046875 
Q 43.703125 -1.421875 29.984375 -1.421875 
Q 24.8125 -1.421875 18.96875 -0.25 
Q 13.140625 0.921875 6.890625 3.21875 
L 6.890625 13.375 
Q 12.890625 10.015625 18.65625 8.296875 
Q 24.421875 6.59375 29.984375 6.59375 
Q 38.421875 6.59375 43.015625 9.90625 
Q 47.609375 13.234375 47.609375 19.390625 
Q 47.609375 24.75 44.3125 27.78125 
Q 41.015625 30.8125 33.5 32.328125 
L 27.484375 33.5 
Q 16.453125 35.6875 11.515625 40.375 
Q 6.59375 45.0625 6.59375 53.421875 
Q 6.59375 63.09375 13.40625 68.65625 
Q 20.21875 74.21875 32.171875 74.21875 
Q 37.3125 74.21875 42.625 73.28125 
Q 47.953125 72.359375 53.515625 70.515625 
z
" id="DejaVuSans-53"/>
      <path d="M 48.78125 52.59375 
L 48.78125 44.1875 
Q 44.96875 46.296875 41.140625 47.34375 
Q 37.3125 48.390625 33.40625 48.390625 
Q 24.65625 48.390625 19.8125 42.84375 
Q 14.984375 37.3125 14.984375 27.296875 
Q 14.984375 17.28125 19.8125 11.734375 
Q 24.65625 6.203125 33.40625 6.203125 
Q 37.3125 6.203125 41.140625 7.25 
Q 44.96875 8.296875 48.78125 10.40625 
L 48.78125 2.09375 
Q 45.015625 0.34375 40.984375 -0.53125 
Q 36.96875 -1.421875 32.421875 -1.421875 
Q 20.0625 -1.421875 12.78125 6.34375 
Q 5.515625 14.109375 5.515625 27.296875 
Q 5.515625 40.671875 12.859375 48.328125 
Q 20.21875 56 33.015625 56 
Q 37.15625 56 41.109375 55.140625 
Q 45.0625 54.296875 48.78125 52.59375 
z
" id="DejaVuSans-63"/>
      <path d="M 30.609375 48.390625 
Q 23.390625 48.390625 19.1875 42.75 
Q 14.984375 37.109375 14.984375 27.296875 
Q 14.984375 17.484375 19.15625 11.84375 
Q 23.34375 6.203125 30.609375 6.203125 
Q 37.796875 6.203125 41.984375 11.859375 
Q 46.1875 17.53125 46.1875 27.296875 
Q 46.1875 37.015625 41.984375 42.703125 
Q 37.796875 48.390625 30.609375 48.390625 
z
M 30.609375 56 
Q 42.328125 56 49.015625 48.375 
Q 55.71875 40.765625 55.71875 27.296875 
Q 55.71875 13.875 49.015625 6.21875 
Q 42.328125 -1.421875 30.609375 -1.421875 
Q 18.84375 -1.421875 12.171875 6.21875 
Q 5.515625 13.875 5.515625 27.296875 
Q 5.515625 40.765625 12.171875 48.375 
Q 18.84375 56 30.609375 56 
z
" id="DejaVuSans-6f"/>
      <path d="M 41.109375 46.296875 
Q 39.59375 47.171875 37.8125 47.578125 
Q 36.03125 48 33.890625 48 
Q 26.265625 48 22.1875 43.046875 
Q 18.109375 38.09375 18.109375 28.8125 
L 18.109375 0 
L 9.078125 0 
L 9.078125 54.6875 
L 18.109375 54.6875 
L 18.109375 46.1875 
Q 20.953125 51.171875 25.484375 53.578125 
Q 30.03125 56 36.53125 56 
Q 37.453125 56 38.578125 55.875 
Q 39.703125 55.765625 41.0625 55.515625 
z
" id="DejaVuSans-72"/>
      <path d="M 56.203125 29.59375 
L 56.203125 25.203125 
L 14.890625 25.203125 
Q 15.484375 15.921875 20.484375 11.0625 
Q 25.484375 6.203125 34.421875 6.203125 
Q 39.59375 6.203125 44.453125 7.46875 
Q 49.3125 8.734375 54.109375 11.28125 
L 54.109375 2.78125 
Q 49.265625 0.734375 44.1875 -0.34375 
Q 39.109375 -1.421875 33.890625 -1.421875 
Q 20.796875 -1.421875 13.15625 6.1875 
Q 5.515625 13.8125 5.515625 26.8125 
Q 5.515625 40.234375 12.765625 48.109375 
Q 20.015625 56 32.328125 56 
Q 43.359375 56 49.78125 48.890625 
Q 56.203125 41.796875 56.203125 29.59375 
z
M 47.21875 32.234375 
Q 47.125 39.59375 43.09375 43.984375 
Q 39.0625 48.390625 32.421875 48.390625 
Q 24.90625 48.390625 20.390625 44.140625 
Q 15.875 39.890625 15.1875 32.171875 
z
" id="DejaVuSans-65"/>
     </defs>
     <g transform="translate(207.286719 280.276563)scale(0.1 -0.1)">
      <use xlink:href="#DejaVuSans-53"/>
      <use x="63.476562" xlink:href="#DejaVuSans-63"/>
      <use x="118.457031" xlink:href="#DejaVuSans-6f"/>
      <use x="179.638672" xlink:href="#DejaVuSans-72"/>
      <use x="220.720703" xlink:href="#DejaVuSans-65"/>
     </g>
    </g>
   </g>
   <g id="matplotlib.axis_2">
    <g id="ytick_1">
     <g id="line2d_9">
      <defs>
       <path d="M 0 0 
L -3.5 0 
" id="m37db9e82cc" style="stroke:#000000;stroke-width:0.8;"/>
      </defs>
      <g>
       <use style="stroke:#000000;stroke-width:0.8;" x="54" xlink:href="#m37db9e82cc" y="244.139662"/>
      </g>
     </g>
     <g id="text_10">
      <!-- 50000 -->
      <defs>
       <path d="M 10.59375 35.5 
L 73.1875 35.5 
L 73.1875 27.203125 
L 10.59375 27.203125 
z
" id="DejaVuSans-2212"/>
      </defs>
      <g transform="translate(6.807812 247.938881)scale(0.1 -0.1)">
       <use xlink:href="#DejaVuSans-2212"/>
       <use x="83.789062" xlink:href="#DejaVuSans-35"/>
       <use x="147.412109" xlink:href="#DejaVuSans-30"/>
       <use x="211.035156" xlink:href="#DejaVuSans-30"/>
       <use x="274.658203" xlink:href="#DejaVuSans-30"/>
       <use x="338.28125" xlink:href="#DejaVuSans-30"/>
      </g>
     </g>
    </g>
    <g id="ytick_2">
     <g id="line2d_10">
      <g>
       <use style="stroke:#000000;stroke-width:0.8;" x="54" xlink:href="#m37db9e82cc" y="208.930134"/>
      </g>
     </g>
     <g id="text_11">
      <!-- 0 -->
      <g transform="translate(40.6375 212.729352)scale(0.1 -0.1)">
       <use xlink:href="#DejaVuSans-30"/>
      </g>
     </g>
    </g>
    <g id="ytick_3">
     <g id="line2d_11">
      <g>
       <use style="stroke:#000000;stroke-width:0.8;" x="54" xlink:href="#m37db9e82cc" y="173.720605"/>
      </g>
     </g>
     <g id="text_12">
      <!-- 50000 -->
      <g transform="translate(15.1875 177.519824)scale(0.1 -0.1)">
       <use xlink:href="#DejaVuSans-35"/>
       <use x="63.623047" xlink:href="#DejaVuSans-30"/>
       <use x="127.246094" xlink:href="#DejaVuSans-30"/>
       <use x="190.869141" xlink:href="#DejaVuSans-30"/>
       <use x="254.492188" xlink:href="#DejaVuSans-30"/>
      </g>
     </g>
    </g>
    <g id="ytick_4">
     <g id="line2d_12">
      <g>
       <use style="stroke:#000000;stroke-width:0.8;" x="54" xlink:href="#m37db9e82cc" y="138.511076"/>
      </g>
     </g>
     <g id="text_13">
      <!-- 100000 -->
      <g transform="translate(8.825 142.310295)scale(0.1 -0.1)">
       <use xlink:href="#DejaVuSans-31"/>
       <use x="63.623047" xlink:href="#DejaVuSans-30"/>
       <use x="127.246094" xlink:href="#DejaVuSans-30"/>
       <use x="190.869141" xlink:href="#DejaVuSans-30"/>
       <use x="254.492188" xlink:href="#DejaVuSans-30"/>
       <use x="318.115234" xlink:href="#DejaVuSans-30"/>
      </g>
     </g>
    </g>
    <g id="ytick_5">
     <g id="line2d_13">
      <g>
       <use style="stroke:#000000;stroke-width:0.8;" x="54" xlink:href="#m37db9e82cc" y="103.301547"/>
      </g>
     </g>
     <g id="text_14">
      <!-- 150000 -->
      <g transform="translate(8.825 107.100766)scale(0.1 -0.1)">
       <use xlink:href="#DejaVuSans-31"/>
       <use x="63.623047" xlink:href="#DejaVuSans-35"/>
       <use x="127.246094" xlink:href="#DejaVuSans-30"/>
       <use x="190.869141" xlink:href="#DejaVuSans-30"/>
       <use x="254.492188" xlink:href="#DejaVuSans-30"/>
       <use x="318.115234" xlink:href="#DejaVuSans-30"/>
      </g>
     </g>
    </g>
    <g id="ytick_6">
     <g id="line2d_14">
      <g>
       <use style="stroke:#000000;stroke-width:0.8;" x="54" xlink:href="#m37db9e82cc" y="68.092019"/>
      </g>
     </g>
     <g id="text_15">
      <!-- 200000 -->
      <g transform="translate(8.825 71.891237)scale(0.1 -0.1)">
       <use xlink:href="#DejaVuSans-32"/>
       <use x="63.623047" xlink:href="#DejaVuSans-30"/>
       <use x="127.246094" xlink:href="#DejaVuSans-30"/>
       <use x="190.869141" xlink:href="#DejaVuSans-30"/>
       <use x="254.492188" xlink:href="#DejaVuSans-30"/>
       <use x="318.115234" xlink:href="#DejaVuSans-30"/>
      </g>
     </g>
    </g>
    <g id="text_16">
     <!-- Detrended like count -->
     <defs>
      <path d="M 19.671875 64.796875 
L 19.671875 8.109375 
L 31.59375 8.109375 
Q 46.6875 8.109375 53.6875 14.9375 
Q 60.6875 21.78125 60.6875 36.53125 
Q 60.6875 51.171875 53.6875 57.984375 
Q 46.6875 64.796875 31.59375 64.796875 
z
M 9.8125 72.90625 
L 30.078125 72.90625 
Q 51.265625 72.90625 61.171875 64.09375 
Q 71.09375 55.28125 71.09375 36.53125 
Q 71.09375 17.671875 61.125 8.828125 
Q 51.171875 0 30.078125 0 
L 9.8125 0 
z
" id="DejaVuSans-44"/>
      <path d="M 18.3125 70.21875 
L 18.3125 54.6875 
L 36.8125 54.6875 
L 36.8125 47.703125 
L 18.3125 47.703125 
L 18.3125 18.015625 
Q 18.3125 11.328125 20.140625 9.421875 
Q 21.96875 7.515625 27.59375 7.515625 
L 36.8125 7.515625 
L 36.8125 0 
L 27.59375 0 
Q 17.1875 0 13.234375 3.875 
Q 9.28125 7.765625 9.28125 18.015625 
L 9.28125 47.703125 
L 2.6875 47.703125 
L 2.6875 54.6875 
L 9.28125 54.6875 
L 9.28125 70.21875 
z
" id="DejaVuSans-74"/>
      <path d="M 54.890625 33.015625 
L 54.890625 0 
L 45.90625 0 
L 45.90625 32.71875 
Q 45.90625 40.484375 42.875 44.328125 
Q 39.84375 48.1875 33.796875 48.1875 
Q 26.515625 48.1875 22.3125 43.546875 
Q 18.109375 38.921875 18.109375 30.90625 
L 18.109375 0 
L 9.078125 0 
L 9.078125 54.6875 
L 18.109375 54.6875 
L 18.109375 46.1875 
Q 21.34375 51.125 25.703125 53.5625 
Q 30.078125 56 35.796875 56 
Q 45.21875 56 50.046875 50.171875 
Q 54.890625 44.34375 54.890625 33.015625 
z
" id="DejaVuSans-6e"/>
      <path d="M 45.40625 46.390625 
L 45.40625 75.984375 
L 54.390625 75.984375 
L 54.390625 0 
L 45.40625 0 
L 45.40625 8.203125 
Q 42.578125 3.328125 38.25 0.953125 
Q 33.9375 -1.421875 27.875 -1.421875 
Q 17.96875 -1.421875 11.734375 6.484375 
Q 5.515625 14.40625 5.515625 27.296875 
Q 5.515625 40.1875 11.734375 48.09375 
Q 17.96875 56 27.875 56 
Q 33.9375 56 38.25 53.625 
Q 42.578125 51.265625 45.40625 46.390625 
z
M 14.796875 27.296875 
Q 14.796875 17.390625 18.875 11.75 
Q 22.953125 6.109375 30.078125 6.109375 
Q 37.203125 6.109375 41.296875 11.75 
Q 45.40625 17.390625 45.40625 27.296875 
Q 45.40625 37.203125 41.296875 42.84375 
Q 37.203125 48.484375 30.078125 48.484375 
Q 22.953125 48.484375 18.875 42.84375 
Q 14.796875 37.203125 14.796875 27.296875 
z
" id="DejaVuSans-64"/>
      <path id="DejaVuSans-20"/>
      <path d="M 9.421875 75.984375 
L 18.40625 75.984375 
L 18.40625 0 
L 9.421875 0 
z
" id="DejaVuSans-6c"/>
      <path d="M 9.421875 54.6875 
L 18.40625 54.6875 
L 18.40625 0 
L 9.421875 0 
z
M 9.421875 75.984375 
L 18.40625 75.984375 
L 18.40625 64.59375 
L 9.421875 64.59375 
z
" id="DejaVuSans-69"/>
      <path d="M 9.078125 75.984375 
L 18.109375 75.984375 
L 18.109375 31.109375 
L 44.921875 54.6875 
L 56.390625 54.6875 
L 27.390625 29.109375 
L 57.625 0 
L 45.90625 0 
L 18.109375 26.703125 
L 18.109375 0 
L 9.078125 0 
z
" id="DejaVuSans-6b"/>
      <path d="M 8.5 21.578125 
L 8.5 54.6875 
L 17.484375 54.6875 
L 17.484375 21.921875 
Q 17.484375 14.15625 20.5 10.265625 
Q 23.53125 6.390625 29.59375 6.390625 
Q 36.859375 6.390625 41.078125 11.03125 
Q 45.3125 15.671875 45.3125 23.6875 
L 45.3125 54.6875 
L 54.296875 54.6875 
L 54.296875 0 
L 45.3125 0 
L 45.3125 8.40625 
Q 42.046875 3.421875 37.71875 1 
Q 33.40625 -1.421875 27.6875 -1.421875 
Q 18.265625 -1.421875 13.375 4.4375 
Q 8.5 10.296875 8.5 21.578125 
z
M 31.109375 56 
z
" id="DejaVuSans-75"/>
     </defs>
     <g transform="translate(0.728125 195.922969)rotate(-90)scale(0.1 -0.1)">
      <use xlink:href="#DejaVuSans-44"/>
      <use x="77.001953" xlink:href="#DejaVuSans-65"/>
      <use x="138.525391" xlink:href="#DejaVuSans-74"/>
      <use x="177.734375" xlink:href="#DejaVuSans-72"/>
      <use x="218.816406" xlink:href="#DejaVuSans-65"/>
      <use x="280.339844" xlink:href="#DejaVuSans-6e"/>
      <use x="343.71875" xlink:href="#DejaVuSans-64"/>
      <use x="407.195312" xlink:href="#DejaVuSans-65"/>
      <use x="468.71875" xlink:href="#DejaVuSans-64"/>
      <use x="532.195312" xlink:href="#DejaVuSans-20"/>
      <use x="563.982422" xlink:href="#DejaVuSans-6c"/>
      <use x="591.765625" xlink:href="#DejaVuSans-69"/>
      <use x="619.548828" xlink:href="#DejaVuSans-6b"/>
      <use x="677.412109" xlink:href="#DejaVuSans-65"/>
      <use x="738.935547" xlink:href="#DejaVuSans-20"/>
      <use x="770.722656" xlink:href="#DejaVuSans-63"/>
      <use x="825.703125" xlink:href="#DejaVuSans-6f"/>
      <use x="886.884766" xlink:href="#DejaVuSans-75"/>
      <use x="950.263672" xlink:href="#DejaVuSans-6e"/>
      <use x="1013.642578" xlink:href="#DejaVuSans-74"/>
     </g>
    </g>
   </g>
   <g id="LineCollection_1">
    <path clip-path="url(#p934df5371e)" d="M 74.290909 198.716257 
L 84.436364 198.716257 
" style="fill:none;stroke:#1f77b4;stroke-width:1.5;"/>
    <path clip-path="url(#p934df5371e)" d="M 114.872727 211.558723 
L 125.018182 211.558723 
" style="fill:none;stroke:#1f77b4;stroke-width:1.5;"/>
    <path clip-path="url(#p934df5371e)" d="M 155.454545 206.161067 
L 165.6 206.161067 
" style="fill:none;stroke:#1f77b4;stroke-width:1.5;"/>
    <path clip-path="url(#p934df5371e)" d="M 196.036364 200.972959 
L 206.181818 200.972959 
" style="fill:none;stroke:#1f77b4;stroke-width:1.5;"/>
    <path clip-path="url(#p934df5371e)" d="M 236.618182 160.331323 
L 246.763636 160.331323 
" style="fill:none;stroke:#1f77b4;stroke-width:1.5;"/>
    <path clip-path="url(#p934df5371e)" d="M 277.2 87.372621 
L 287.345455 87.372621 
" style="fill:none;stroke:#1f77b4;stroke-width:1.5;"/>
    <path clip-path="url(#p934df5371e)" d="M 317.781818 157.040329 
L 327.927273 157.040329 
" style="fill:none;stroke:#1f77b4;stroke-width:1.5;"/>
    <path clip-path="url(#p934df5371e)" d="M 358.363636 44.443636 
L 368.509091 44.443636 
" style="fill:none;stroke:#1f77b4;stroke-width:1.5;"/>
   </g>
   <g id="LineCollection_2">
    <path clip-path="url(#p934df5371e)" d="M 74.290909 198.716257 
L 84.436364 198.716257 
" style="fill:none;stroke:#1f77b4;stroke-width:1.5;"/>
    <path clip-path="url(#p934df5371e)" d="M 114.872727 211.558723 
L 125.018182 211.558723 
" style="fill:none;stroke:#1f77b4;stroke-width:1.5;"/>
    <path clip-path="url(#p934df5371e)" d="M 155.454545 242.116364 
L 165.6 242.116364 
" style="fill:none;stroke:#1f77b4;stroke-width:1.5;"/>
    <path clip-path="url(#p934df5371e)" d="M 196.036364 217.661772 
L 206.181818 217.661772 
" style="fill:none;stroke:#1f77b4;stroke-width:1.5;"/>
    <path clip-path="url(#p934df5371e)" d="M 236.618182 231.190387 
L 246.763636 231.190387 
" style="fill:none;stroke:#1f77b4;stroke-width:1.5;"/>
    <path clip-path="url(#p934df5371e)" d="M 277.2 237.489222 
L 287.345455 237.489222 
" style="fill:none;stroke:#1f77b4;stroke-width:1.5;"/>
    <path clip-path="url(#p934df5371e)" d="M 317.781818 232.49167 
L 327.927273 232.49167 
" style="fill:none;stroke:#1f77b4;stroke-width:1.5;"/>
    <path clip-path="url(#p934df5371e)" d="M 358.363636 184.734866 
L 368.509091 184.734866 
" style="fill:none;stroke:#1f77b4;stroke-width:1.5;"/>
   </g>
   <g id="LineCollection_3">
    <path clip-path="url(#p934df5371e)" d="M 79.363636 198.716257 
L 79.363636 198.716257 
" style="fill:none;stroke:#1f77b4;stroke-width:1.5;"/>
    <path clip-path="url(#p934df5371e)" d="M 119.945455 211.558723 
L 119.945455 211.558723 
" style="fill:none;stroke:#1f77b4;stroke-width:1.5;"/>
    <path clip-path="url(#p934df5371e)" d="M 160.527273 242.116364 
L 160.527273 206.161067 
" style="fill:none;stroke:#1f77b4;stroke-width:1.5;"/>
    <path clip-path="url(#p934df5371e)" d="M 201.109091 217.661772 
L 201.109091 200.972959 
" style="fill:none;stroke:#1f77b4;stroke-width:1.5;"/>
    <path clip-path="url(#p934df5371e)" d="M 241.690909 231.190387 
L 241.690909 160.331323 
" style="fill:none;stroke:#1f77b4;stroke-width:1.5;"/>
    <path clip-path="url(#p934df5371e)" d="M 282.272727 237.489222 
L 282.272727 87.372621 
" style="fill:none;stroke:#1f77b4;stroke-width:1.5;"/>
    <path clip-path="url(#p934df5371e)" d="M 322.854545 232.49167 
L 322.854545 157.040329 
" style="fill:none;stroke:#1f77b4;stroke-width:1.5;"/>
    <path clip-path="url(#p934df5371e)" d="M 363.436364 184.734866 
L 363.436364 44.443636 
" style="fill:none;stroke:#1f77b4;stroke-width:1.5;"/>
   </g>
   <g id="LineCollection_4">
    <path clip-path="url(#p934df5371e)" d="M 74.290909 198.716257 
L 84.436364 198.716257 
" style="fill:none;stroke:#1f77b4;stroke-width:1.5;"/>
    <path clip-path="url(#p934df5371e)" d="M 114.872727 211.558723 
L 125.018182 211.558723 
" style="fill:none;stroke:#1f77b4;stroke-width:1.5;"/>
    <path clip-path="url(#p934df5371e)" d="M 155.454545 212.693895 
L 165.6 212.693895 
" style="fill:none;stroke:#1f77b4;stroke-width:1.5;"/>
    <path clip-path="url(#p934df5371e)" d="M 196.036364 211.358368 
L 206.181818 211.358368 
" style="fill:none;stroke:#1f77b4;stroke-width:1.5;"/>
    <path clip-path="url(#p934df5371e)" d="M 236.618182 212.086766 
L 246.763636 212.086766 
" style="fill:none;stroke:#1f77b4;stroke-width:1.5;"/>
    <path clip-path="url(#p934df5371e)" d="M 277.2 211.286294 
L 287.345455 211.286294 
" style="fill:none;stroke:#1f77b4;stroke-width:1.5;"/>
    <path clip-path="url(#p934df5371e)" d="M 317.781818 209.189679 
L 327.927273 209.189679 
" style="fill:none;stroke:#1f77b4;stroke-width:1.5;"/>
    <path clip-path="url(#p934df5371e)" d="M 358.363636 100.008906 
L 368.509091 100.008906 
" style="fill:none;stroke:#1f77b4;stroke-width:1.5;"/>
   </g>
   <g id="patch_3">
    <path d="M 54 252 
L 54 34.56 
" style="fill:none;stroke:#000000;stroke-linecap:square;stroke-linejoin:miter;stroke-width:0.8;"/>
   </g>
   <g id="patch_4">
    <path d="M 388.8 252 
L 388.8 34.56 
" style="fill:none;stroke:#000000;stroke-linecap:square;stroke-linejoin:miter;stroke-width:0.8;"/>
   </g>
   <g id="patch_5">
    <path d="M 54 252 
L 388.8 252 
" style="fill:none;stroke:#000000;stroke-linecap:square;stroke-linejoin:miter;stroke-width:0.8;"/>
   </g>
   <g id="patch_6">
    <path d="M 54 34.56 
L 388.8 34.56 
" style="fill:none;stroke:#000000;stroke-linecap:square;stroke-linejoin:miter;stroke-width:0.8;"/>
   </g>
   <g id="text_17">
    <!-- $N = 586$ -->
    <defs>
     <path d="M 16.890625 72.90625 
L 30.171875 72.90625 
L 50.296875 10.40625 
L 62.5 72.90625 
L 72.125 72.90625 
L 57.90625 0 
L 44.578125 0 
L 24.515625 62.890625 
L 12.3125 0 
L 2.6875 0 
z
" id="DejaVuSans-Oblique-4e"/>
     <path d="M 10.59375 45.40625 
L 73.1875 45.40625 
L 73.1875 37.203125 
L 10.59375 37.203125 
z
M 10.59375 25.484375 
L 73.1875 25.484375 
L 73.1875 17.1875 
L 10.59375 17.1875 
z
" id="DejaVuSans-3d"/>
     <path d="M 31.78125 34.625 
Q 24.75 34.625 20.71875 30.859375 
Q 16.703125 27.09375 16.703125 20.515625 
Q 16.703125 13.921875 20.71875 10.15625 
Q 24.75 6.390625 31.78125 6.390625 
Q 38.8125 6.390625 42.859375 10.171875 
Q 46.921875 13.96875 46.921875 20.515625 
Q 46.921875 27.09375 42.890625 30.859375 
Q 38.875 34.625 31.78125 34.625 
z
M 21.921875 38.8125 
Q 15.578125 40.375 12.03125 44.71875 
Q 8.5 49.078125 8.5 55.328125 
Q 8.5 64.0625 14.71875 69.140625 
Q 20.953125 74.21875 31.78125 74.21875 
Q 42.671875 74.21875 48.875 69.140625 
Q 55.078125 64.0625 55.078125 55.328125 
Q 55.078125 49.078125 51.53125 44.71875 
Q 48 40.375 41.703125 38.8125 
Q 48.828125 37.15625 52.796875 32.3125 
Q 56.78125 27.484375 56.78125 20.515625 
Q 56.78125 9.90625 50.3125 4.234375 
Q 43.84375 -1.421875 31.78125 -1.421875 
Q 19.734375 -1.421875 13.25 4.234375 
Q 6.78125 9.90625 6.78125 20.515625 
Q 6.78125 27.484375 10.78125 32.3125 
Q 14.796875 37.15625 21.921875 38.8125 
z
M 18.3125 54.390625 
Q 18.3125 48.734375 21.84375 45.5625 
Q 25.390625 42.390625 31.78125 42.390625 
Q 38.140625 42.390625 41.71875 45.5625 
Q 45.3125 48.734375 45.3125 54.390625 
Q 45.3125 60.0625 41.71875 63.234375 
Q 38.140625 66.40625 31.78125 66.40625 
Q 25.390625 66.40625 21.84375 63.234375 
Q 18.3125 60.0625 18.3125 54.390625 
z
" id="DejaVuSans-38"/>
    </defs>
    <g transform="translate(198.06 28.56)scale(0.12 -0.12)">
     <use transform="translate(0 0.78125)" xlink:href="#DejaVuSans-Oblique-4e"/>
     <use transform="translate(94.287109 0.78125)" xlink:href="#DejaVuSans-3d"/>
     <use transform="translate(197.558594 0.78125)" xlink:href="#DejaVuSans-35"/>
     <use transform="translate(261.181641 0.78125)" xlink:href="#DejaVuSans-38"/>
     <use transform="translate(324.804688 0.78125)" xlink:href="#DejaVuSans-36"/>
    </g>
   </g>
  </g>
 </g>
 <defs>
  <clipPath id="p934df5371e">
   <rect height="217.44" width="334.8" x="54" y="34.56"/>
  </clipPath>
 </defs>
</svg>
